<svg xmlns="http://www.w3.org/2000/svg" xmlns:xlink="http://www.w3.org/1999/xlink" width="286.012" height="64.159" viewBox="0 0 286.012 64.159">
  <defs>
    <clipPath id="clip-path">
      <rect id="Rectangle_2" data-name="Rectangle 2" width="286.012" height="64.159" fill="none"/>
    </clipPath>
  </defs>
  <g id="Group_1" data-name="Group 1" clip-path="url(#clip-path)">
    <path id="Path_1" data-name="Path 1" d="M51.22,59.61A25.137,25.137,0,0,1,48.2,63.84l.032.032-1.067,1.072A25.154,25.154,0,0,1,4.173,47.211c0-.5.015-1,.046-1.5,0-.068.007-.138.012-.209v-.019c0-.046.006-.091.009-.138l0-.023c.007-.1.017-.207.025-.312.008-.085.015-.176.025-.266.013-.133.027-.27.042-.406.009-.079.019-.166.03-.253.012-.111.029-.235.046-.359.01-.069.02-.136.03-.2.015-.113.035-.239.056-.365.01-.067.023-.141.035-.213s.021-.124.034-.186c.013-.08.03-.173.047-.262s.032-.165.048-.251.04-.2.062-.3c.144-.686.321-1.374.524-2.045l.006-.018c.026-.088.053-.177.081-.265s.047-.151.073-.228c.142-.439.3-.883.469-1.313.023-.059.047-.123.073-.184s.053-.135.081-.2.072-.174.111-.266c.029-.07.062-.147.1-.224l.015-.035c.047-.1.092-.209.139-.313.035-.078.07-.153.106-.231a24.946,24.946,0,0,1,2.284-3.933l.142-.2c.1-.138.2-.272.3-.406.049-.062.1-.13.15-.2q.166-.213.333-.422c.065-.08.131-.163.2-.244s.13-.156.2-.238.136-.161.206-.239.156-.18.236-.27L7.593,27.522A29.327,29.327,0,1,0,54.265,62.655Z" transform="translate(0 -12.38)" fill="#262e3a"/>
    <path id="Path_2" data-name="Path 2" d="M19.582,62.881a21.974,21.974,0,0,0,15.64,6.478c.185,0,.37,0,.556-.007l.273-.008h.013c.136-.006.271-.012.407-.02.109-.006.217-.012.324-.02l.149-.01.074-.006c.1-.008.2-.017.3-.027s.172-.015.257-.025l.167-.018.112-.013c.073-.009.145-.018.22-.029.272-.033.542-.073.8-.117l.22-.038.024,0,.173-.03.029-.006.226-.044c.2-.039.393-.079.587-.123.13-.029.26-.061.39-.092l.017,0c.033-.007.065-.015.1-.024.1-.024.183-.047.27-.069s.146-.038.216-.058l.168-.047.132-.038.03-.009.163-.048c.091-.028.171-.052.25-.078l.18-.056c.186-.061.369-.123.552-.188.051-.018.1-.035.147-.053l.036-.012c.065-.023.123-.044.178-.067.091-.034.173-.064.255-.1s.129-.048.188-.073l.318-.129.307-.132c.1-.041.191-.082.282-.124l.147-.067.044-.02.227-.108c.464-.221.923-.46,1.367-.711l.139-.08c.1-.059.2-.119.306-.178l.506-.312c.224-.143.454-.3.7-.467l.206-.145.029-.02c.052-.036.1-.073.153-.11l.015-.011.112-.081.014-.011c.064-.045.127-.092.189-.139l.206-.156.128-.1.047-.036.209-.166c.073-.058.142-.116.212-.173l.018-.015c.133-.109.265-.221.4-.336.039-.035.08-.07.121-.1l-2.958-2.958A17.945,17.945,0,0,1,22.589,34.5,18.129,18.129,0,0,1,28.2,30.725l-3.137-3.137a22.124,22.124,0,0,0-5.48,35.293" transform="translate(-5.894 -12.409)" fill="#f60"/>
    <path id="Path_3" data-name="Path 3" d="M54.553,29.326A29.329,29.329,0,0,0,25.225,0,29.378,29.378,0,0,0,.289,13.884l3.044,3.045A25.231,25.231,0,0,1,6.35,12.7l-.031-.032L7.387,11.6A25.154,25.154,0,0,1,50.381,29.326c0,.5-.015,1-.046,1.5,0,.067-.008.138-.012.209,0,.05-.008.1-.01.154l0,.024c-.008.1-.017.209-.026.312-.007.086-.015.179-.024.27-.013.13-.027.268-.042.4-.009.079-.018.165-.03.253-.012.111-.029.235-.046.359-.01.07-.019.136-.03.2-.015.115-.035.241-.056.366l-.035.213c-.01.062-.021.124-.033.186-.012.08-.03.173-.047.262s-.031.165-.05.251-.038.2-.061.3c-.145.686-.321,1.377-.524,2.046-.029.094-.056.188-.088.283-.023.074-.047.15-.073.229-.144.442-.3.884-.469,1.313l-.071.183c-.028.068-.054.136-.084.206s-.073.176-.111.266c-.029.07-.062.147-.1.224l-.015.035c-.047.1-.092.209-.14.311-.035.078-.069.155-.106.231a24.832,24.832,0,0,1-2.285,3.933l-.14.2c-.1.139-.2.274-.3.406-.048.063-.1.131-.15.2q-.165.214-.333.423c-.065.08-.131.163-.2.244s-.121.147-.184.223l-.013.013c-.069.08-.138.162-.207.241s-.156.18-.236.27l2.954,2.955a29.179,29.179,0,0,0,7.592-19.69" transform="translate(-0.13)" fill="#f60"/>
    <path id="Path_4" data-name="Path 4" d="M40.712,51.738l3.137,3.137A22.121,22.121,0,0,0,33.688,13.1c-.184,0-.369,0-.556.007-.092,0-.183,0-.272.008h-.014c-.136.006-.271.012-.407.02-.109.006-.216.012-.324.02-.056,0-.1.008-.149.01l-.075.006-.3.026-.257.026-.168.018-.086.009-.029,0c-.073.008-.142.017-.215.026-.273.035-.542.074-.8.118-.074.012-.147.024-.22.038l-.024,0c-.058.009-.112.02-.167.03l-.036.006c-.073.014-.145.027-.218.042-.206.039-.4.08-.594.124-.13.029-.26.061-.389.092l-.017,0c-.034.006-.065.015-.1.023l-.27.069c-.074.02-.145.038-.216.059l-.17.047-.13.038-.03.009c-.054.015-.109.03-.164.048-.091.025-.171.051-.25.077l-.18.056c-.186.061-.37.122-.552.188-.05.017-.1.033-.142.05l-.042.015-.173.064c-.1.035-.177.067-.259.1s-.127.05-.188.074c-.114.044-.215.086-.318.129l-.308.132c-.1.041-.189.081-.282.124l-.147.067-.044.02-.227.108c-.465.221-.925.46-1.367.711-.05.027-.094.053-.139.08-.1.056-.194.112-.289.169l-.319.194-.2.127c-.226.142-.456.3-.7.467l-.189.131-.041.029-.161.115-.021.015-.1.077-.014.011c-.063.045-.127.092-.189.139s-.138.1-.2.156c-.048.036-.088.068-.127.1l-.048.038c-.07.054-.14.109-.209.167s-.155.125-.231.188c-.134.109-.265.221-.4.336l-.121.1,2.958,2.958a17.946,17.946,0,0,1,24.26,26.415,18.132,18.132,0,0,1-5.611,3.773" transform="translate(-8.594 -5.894)" fill="#262e3a"/>
    <path id="Path_5" data-name="Path 5" d="M133.537,41.529V10.071h23.01v2.921H136.907V38.383h19.639v3.145Zm18.875-14.515H139.829V24.093h12.583Z" transform="translate(-60.066 -4.53)" fill="#f60"/>
    <path id="Path_6" data-name="Path 6" d="M212.878,41.529h-3.37v-24.9l-10.876,18.38-10.92-18.38v24.9h-3.37V10.072h3.505l10.785,18.65,10.741-18.65h3.505Z" transform="translate(-82.918 -4.53)" fill="#f60"/>
    <path id="Path_7" data-name="Path 7" d="M261.14,31.867h-8.494v9.662h-3.37V10.071H261.14c7.73,0,12.313,4.359,12.313,10.876,0,6.561-4.584,10.92-12.313,10.92m-1.8-18.875h-6.7V28.946h6.7c7.055,0,10.74-2.517,10.74-8,0-5.438-3.685-7.955-10.74-7.955" transform="translate(-112.126 -4.53)" fill="#f60"/>
    <path id="Path_8" data-name="Path 8" d="M317.625,31.642l11.01,9.887h-5.078l-10.74-9.662h-6.427v9.662H303.02V10.071h11.864c7.73,0,12.314,4.359,12.314,10.876,0,6.2-3.505,9.752-9.573,10.7m-4.763-18.65h-6.472V28.946h6.472c7.055,0,10.965-2.517,10.965-8,0-5.438-3.91-7.955-10.965-7.955" transform="translate(-136.3 -4.53)" fill="#f60"/>
    <path id="Path_9" data-name="Path 9" d="M360.2,41.529V10.071h23.009v2.921H363.568V38.383h19.639v3.145Zm18.874-14.515H366.488V24.093h12.583Z" transform="translate(-162.019 -4.53)" fill="#f60"/>
    <path id="Path_10" data-name="Path 10" d="M412.174,35.372c3.73,3.37,9.8,4.224,13.976,1.483,3.641-2.426,3.011-6.067,2.157-7.28-1.348-1.977-4.044-2.337-6.606-3.011-4.044-1.079-8.359-1.079-11.325-4.629a7,7,0,0,1,.4-9.213,12.3,12.3,0,0,1,9.033-3.55,14.04,14.04,0,0,1,10.56,4.539c.045,0,.09.09.135.18l-2.561,2.157a12.991,12.991,0,0,0-3.011-2.426c-3.55-1.843-8.224-1.888-11.28.764a3.965,3.965,0,0,0-.449,5.573c1.977,2.606,5.887,2.562,9.527,3.46,4.4,1.123,8.763,2.292,9.617,7.37.673,4.045-1.843,7.775-5.843,9.572-6.606,3.011-15.414.629-19.01-5.482a4.791,4.791,0,0,1-.584-1.214l3.1-1.123a8.641,8.641,0,0,0,2.157,2.831" transform="translate(-183.033 -4.126)" fill="#f60"/>
    <path id="Path_11" data-name="Path 11" d="M488.688,41.529,475.745,13.487,462.758,41.529h-3.73l14.651-31.458h4.089l14.651,31.458Z" transform="translate(-206.473 -4.53)" fill="#f60"/>
    <path id="Path_12" data-name="Path 12" d="M134.362,99.149V90.057h4.981v1.128h-3.684v2.789h3.217V95.1h-3.217v2.918h3.852v1.128Z" transform="translate(-60.437 -40.508)" fill="#f60"/>
    <path id="Path_13" data-name="Path 13" d="M157.412,96.695c0-1.881-4.281-1.492-4.281-4.358a2.656,2.656,0,0,1,2.918-2.517,3.633,3.633,0,0,1,2.465.857l-.8,1a2.57,2.57,0,0,0-1.751-.687c-.946,0-1.5.532-1.5,1.258,0,1.906,4.293,1.531,4.293,4.371,0,1.362-1.1,2.556-3.152,2.556a4.36,4.36,0,0,1-2.944-1l.765-1.077a3.508,3.508,0,0,0,2.322.921c1.1,0,1.673-.584,1.673-1.323" transform="translate(-68.664 -40.402)" fill="#f60"/>
    <path id="Path_14" data-name="Path 14" d="M179.766,92.689c0,1.777-1,2.97-3.256,2.97H175.3v3.489h-1.3V90.056h2.75c1.815,0,3.008.752,3.008,2.633M175.3,91.2v3.346h1.181c1.452,0,1.932-.635,1.932-1.686,0-1.181-.649-1.66-1.92-1.66Z" transform="translate(-78.27 -40.508)" fill="#f60"/>
    <path id="Path_15" data-name="Path 15" d="M196.015,90.056l2.9,9.093h-1.388l-.765-2.49H193.3l-.778,2.49H191.19l2.88-9.093Zm-2.361,5.474h2.763L195.639,93c-.156-.558-.506-1.686-.584-2.036H195c-.065.337-.415,1.492-.558,2Z" transform="translate(-85.998 -40.508)" fill="#f60"/>
    <path id="Path_16" data-name="Path 16" d="M217.194,89.821a3.593,3.593,0,0,1,2.542.843l-.843.986a2.389,2.389,0,0,0-1.8-.675c-1.492,0-2.361,1.09-2.361,3.5,0,2.283.843,3.528,2.477,3.528a2.309,2.309,0,0,0,1.725-.61l.726.92a3.544,3.544,0,0,1-2.607.857c-2.581,0-3.658-1.829-3.658-4.605,0-2.944,1.31-4.747,3.8-4.747" transform="translate(-95.986 -40.402)" fill="#f60"/>
    <rect id="Rectangle_1" data-name="Rectangle 1" width="1.31" height="9.093" transform="translate(129.314 49.549)" fill="#f60"/>
    <path id="Path_17" data-name="Path 17" d="M251.689,99.173c-2.192,0-3.528-1.258-3.528-4.631,0-3.333,1.453-4.721,3.645-4.721s3.54,1.271,3.54,4.63-1.453,4.722-3.658,4.722m.091-1.142c1.362,0,2.218-.843,2.218-3.489,0-2.672-.881-3.58-2.282-3.58-1.323,0-2.218.817-2.218,3.476,0,2.685.9,3.593,2.283,3.593" transform="translate(-111.624 -40.402)" fill="#f60"/>
    <path id="Path_18" data-name="Path 18" d="M291.35,92.689c0,1.777-1,2.97-3.255,2.97h-1.206v3.489h-1.3V90.056h2.75c1.815,0,3.008.752,3.008,2.633M286.889,91.2v3.346h1.181c1.452,0,1.932-.635,1.932-1.686,0-1.181-.649-1.66-1.92-1.66Z" transform="translate(-128.461 -40.508)" fill="#f60"/>
    <path id="Path_19" data-name="Path 19" d="M307.6,90.056l2.9,9.093h-1.388l-.765-2.49h-3.463l-.778,2.49h-1.336l2.88-9.093Zm-2.361,5.474H308L307.223,93c-.156-.558-.506-1.686-.584-2.036h-.052c-.065.337-.415,1.492-.558,2Z" transform="translate(-136.19 -40.508)" fill="#f60"/>
    <path id="Path_20" data-name="Path 20" d="M328.73,90.057c1.919,0,3.061.752,3.061,2.594a2.314,2.314,0,0,1-2.01,2.491v.052a2.6,2.6,0,0,1,1.128,1.219l1.6,2.737h-1.57l-1.609-2.918a1.268,1.268,0,0,0-1.245-.739h-.532v3.658h-1.3V90.057ZM327.549,94.4h1.05c1.193,0,1.855-.493,1.855-1.634s-.674-1.583-1.906-1.583h-1Z" transform="translate(-146.75 -40.508)" fill="#f60"/>
    <path id="Path_21" data-name="Path 21" d="M350.38,90.056l2.905,9.093H351.9l-.765-2.49h-3.463l-.778,2.49h-1.336l2.88-9.093Zm-2.361,5.474h2.763L350,93c-.156-.558-.506-1.686-.584-2.036h-.052c-.065.337-.415,1.492-.558,2Z" transform="translate(-155.433 -40.508)" fill="#f60"/>
    <path id="Path_22" data-name="Path 22" d="M382.844,99.149V90.057h4.981v1.128h-3.684v2.789h3.217V95.1h-3.217v2.918h3.852v1.128Z" transform="translate(-172.206 -40.508)" fill="#f60"/>
    <path id="Path_23" data-name="Path 23" d="M405.9,96.695c0-1.881-4.281-1.492-4.281-4.358a2.656,2.656,0,0,1,2.918-2.517,3.633,3.633,0,0,1,2.465.857l-.8,1a2.57,2.57,0,0,0-1.751-.687c-.946,0-1.5.532-1.5,1.258,0,1.906,4.293,1.531,4.293,4.371,0,1.362-1.1,2.556-3.152,2.556a4.36,4.36,0,0,1-2.944-1L401.9,97.1a3.508,3.508,0,0,0,2.322.921c1.1,0,1.673-.584,1.673-1.323" transform="translate(-180.433 -40.402)" fill="#f60"/>
    <path id="Path_24" data-name="Path 24" d="M423.788,90.057v7.964h3.748v1.128h-5.045V90.057Z" transform="translate(-190.039 -40.508)" fill="#f60"/>
    <path id="Path_25" data-name="Path 25" d="M443.578,99.173c-2.191,0-3.528-1.258-3.528-4.631,0-3.333,1.452-4.721,3.645-4.721s3.541,1.271,3.541,4.63-1.453,4.722-3.658,4.722m.091-1.142c1.362,0,2.218-.843,2.218-3.489,0-2.672-.881-3.58-2.282-3.58-1.323,0-2.218.817-2.218,3.476,0,2.685.895,3.593,2.282,3.593" transform="translate(-197.937 -40.402)" fill="#f60"/>
    <path id="Path_26" data-name="Path 26" d="M469.494,90.677l-.843.96a2.531,2.531,0,0,0-1.829-.649c-1.284,0-2.62.688-2.62,3.425,0,2.594.907,3.644,2.607,3.644a2.973,2.973,0,0,0,1.388-.286V94.4h1.309v3.956a4.562,4.562,0,0,1-2.97.817c-2.425,0-3.671-1.543-3.671-4.63,0-3.281,1.777-4.721,4.021-4.721a3.478,3.478,0,0,1,2.607.856" transform="translate(-208.2 -40.402)" fill="#f60"/>
    <path id="Path_27" data-name="Path 27" d="M488.787,90.056l2.905,9.093H490.3l-.765-2.49h-3.463l-.778,2.49h-1.336l2.88-9.093Zm-2.361,5.474h2.763L488.411,93c-.156-.558-.506-1.686-.584-2.036h-.052c-.065.337-.415,1.492-.558,2Z" transform="translate(-217.689 -40.508)" fill="#f60"/>
    <path id="Path_28" data-name="Path 28" d="M508.632,91.652c.039.4.064,1.946.064,2.633v4.864h-1.258V90.057h1.725l2.711,5.123c.194.389.972,1.867,1.115,2.257h.078c-.039-.558-.039-2.309-.039-2.737V90.057h1.232v9.092h-1.686L509.8,93.922c-.194-.39-.921-1.829-1.089-2.27Z" transform="translate(-228.249 -40.508)" fill="#f60"/>
  </g>
</svg>
